# xmcd
#
# Track frame offsets:
#	150
#	20725
#	31067
#	52042
#	63407
#	77244
#	91240
#	101925
#	127094
#	140424
#	155611
#	167806
#	183728
#	204775
#
# Disc length: 2932 seconds
#
# Revision: 6
# Processed by: cddbd v1.5.2PL0 Copyright (c) Steve Scherf et al.
# Submitted via: EasyCDDAExtractor 12.0.1.1
#
DISCID=c50b720e
DTITLE=Blondie - Best Of Blondie
DYEAR=1989
DGENRE=Pop
TTITLE0=Heart Of Glass
TTITLE1=Denis
TTITLE2=Tide Is High
TTITLE3=In The Flesh
TTITLE4=Sunday Girl
TTITLE5=Dreaming
TTITLE6=Hanging On The Telephone
TTITLE7=Rapture
TTITLE8=Picture This
TTITLE9=Union City Blue
TTITLE10=Presence Dear
TTITLE11=Call Me
TTITLE12=Atomic
TTITLE13=Rip Her To Shreds
EXTD=YEAR: 1983 ID3G: 17
EXTT0=
EXTT1=
EXTT2=
EXTT3=
EXTT4=
EXTT5=
EXTT6=
EXTT7=
EXTT8=
EXTT9=
EXTT10=
EXTT11=
EXTT12=
EXTT13=
PLAYORDER=
